<svg aria-hidden="true" style="position: absolute; width: 0; height: 0; overflow: hidden;" version="1.1" xmlns="http://www.w3.org/2000/svg" xmlns:xlink="http://www.w3.org/1999/xlink">
<defs>
<symbol id="icon-at-at" viewBox="0 0 38 32">
<path d="M38.24 4.16l-5.040-1.68v-2.48h-11.68v2.48l-5.040 1.68v5.68h21.76v-5.68z"></path>
<path d="M29.36 16.16l-0.32 2c0.24-0.080 0.56-0.16 0.88-0.16 0.64 0 1.2 0.16 1.68 0.48l0.4-2.4h-2.64v0.080z"></path>
<path d="M29.12 24.16l0.8 3.040h2.64l-0.96-3.52c-0.72 0.56-1.76 0.72-2.48 0.48z"></path>
<path d="M32.64 28.72h-2.72c-0.48 0-0.8 0.4-0.8 0.8v0.96h4.4v-0.96c0-0.48-0.4-0.8-0.88-0.8z"></path>
<path d="M23.44 28.88h-2.72c-0.48 0-0.8 0.4-0.8 0.8v0.96h4.4v-0.96c0-0.4-0.4-0.8-0.88-0.8z"></path>
<path d="M31.36 21.12c0-0.88-0.72-1.52-1.52-1.52-0.88 0-1.52 0.72-1.52 1.52s0.64 1.52 1.52 1.52c0.88 0.080 1.52-0.64 1.52-1.52z"></path>
<path d="M14.88 20.64v-2.080l-1.2 1.040c0.4 0.4 0.72 0.96 0.8 1.52 0.16-0.16 0.24-0.32 0.4-0.48z"></path>
<path d="M19.68 24.64c-0.48 0.64-1.2 1.040-2 1.12h-0.080c-0.16 0-0.24 0-0.4 0-0.8 0-1.52-0.32-2.080-0.8l-0.56 3.12h2.64l0.48-2.32 2.080 1.44h3.68l-3.76-2.56z"></path>
<path d="M11.52 20.24c-0.88 0-1.52 0.72-1.52 1.52 0 0.88 0.72 1.52 1.52 1.52 0.88 0 1.52-0.72 1.52-1.52 0-0.72-0.64-1.52-1.52-1.52z"></path>
<path d="M34.080 25.76l0.8 3.040h2.64l-0.96-3.52c-0.8 0.56-1.76 0.64-2.48 0.48z"></path>
<path d="M18.8 20c0-0.080 0.4-1.92 0.32-1.76l0.4-2.080 2.64-1.6c0.64 0 10.72 0 10.4 0l1.92 1.68-0.32 1.76-0.32 1.68c0.24-0.080 0.56-0.16 0.88-0.16 0.64 0 1.2 0.16 1.68 0.48v-0.16l0.4-2.24 1.44-3.12v-3.2h-21.76c0 0.16-0.24 6.32-0.32 8.4 0.88-0.24 1.84-0.16 2.64 0.32z"></path>
<path d="M37.6 30.24h-2.72c-0.48 0-0.8 0.4-0.8 0.8v0.96h4.32v-0.96c0-0.4-0.4-0.8-0.8-0.8z"></path>
<path d="M17.36 29.76h-2.72c-0.48 0-0.8 0.4-0.8 0.8v0.96h4.4v-0.96c-0.080-0.4-0.4-0.8-0.88-0.8z"></path>
<path d="M36.32 22.72c0-0.88-0.72-1.52-1.52-1.52-0.88 0-1.52 0.72-1.52 1.52s0.64 1.52 1.52 1.52c0.8 0 1.52-0.72 1.52-1.52z"></path>
<path d="M17.2 24.24c0.88 0 1.52-0.72 1.52-1.52 0-2-3.12-2.080-3.12 0 0.080 0.88 0.8 1.52 1.6 1.52z"></path>
<path d="M0 7.2v2.64h9.44v-6.16h-5.92c-1.36 1.36-2.16 2.16-3.52 3.52zM5.52 4.96c1.2 0 2.24 0.96 2.24 2.24s-0.96 2.24-2.24 2.24c-1.2 0-2.24-0.96-2.24-2.24s1.040-2.24 2.24-2.24z"></path>
<path d="M5.52 8.24c0.64 0 1.12-0.48 1.12-1.12s-0.48-1.12-1.12-1.12c-0.56 0-1.12 0.48-1.12 1.12s0.48 1.12 1.12 1.12z"></path>
<path d="M14.88 4.88h-1.12v3.76h1.12v-3.76z"></path>
<path d="M12.24 4.88h-1.12v3.76h1.12v-3.76z"></path>
</symbol>
<symbol id="icon-close-icon" viewBox="0 0 32 32">
<path d="M32 3.223l-3.223-3.223-12.777 12.777-12.777-12.777-3.223 3.223 12.777 12.777-12.777 12.777 3.223 3.223 12.777-12.777 12.777 12.777 3.223-3.223-12.777-12.777 12.777-12.777z"></path>
</symbol>
<symbol id="icon-death-star" viewBox="0 0 31 32">
<path d="M20.654 4.445c-0.915 0.196-1.634 0.915-1.83 1.83h1.83v-1.83z"></path>
<path d="M21.634 4.445v1.83h1.83c-0.196-0.915-0.915-1.634-1.83-1.83z"></path>
<path d="M20.654 9.085v-1.83h-1.83c0.131 0.915 0.915 1.634 1.83 1.83z"></path>
<path d="M23.464 7.255h-1.83v1.83c0.915-0.196 1.634-0.915 1.83-1.83z"></path>
<path d="M31.373 15.49c-2.353-0.523-4.51 1.242-4.51 3.595 0 1.765 1.242 3.203 2.876 3.595 1.111-2.157 1.634-4.575 1.634-7.19z"></path>
<path d="M30.261 9.869c-2.288-5.752-7.974-9.869-14.575-9.869-4.902 0-9.281 2.222-12.157 5.752 1.307-0.065 2.68-0.131 4.118-0.327 0.327-0.065 0.654 0.196 0.719 0.588s-0.196 0.719-0.588 0.719c-1.83 0.261-3.595 0.392-5.294 0.392-0.327 0.457-0.588 0.915-0.784 1.373 2.876 0.131 6.013-0.131 9.216-0.784 0.327-0.065 0.719 0.131 0.784 0.523 0.065 0.327-0.131 0.719-0.523 0.784-3.268 0.654-6.667 1.046-10.065 0.784-0.196 0.458-0.327 0.85-0.458 1.307 4.837 0.523 9.412-0.261 12.745-1.111 0.327-0.065 0.719 0.131 0.784 0.458s-0.131 0.719-0.458 0.784c-4.379 1.111-9.020 1.634-13.399 1.111-0.065 0.392-0.131 0.85-0.196 1.242 4.967 0.719 10.588 0.196 16.209-1.569 0.327-0.131 0.719 0.065 0.85 0.392s-0.065 0.719-0.392 0.85c-5.425 1.699-11.242 2.484-16.797 1.634 0 0.523 0 0.98 0 1.503 7.386 1.046 22.288-1.373 30.261-6.536zM21.111 3.072c2.026 0 3.726 1.634 3.726 3.725 0 2.026-1.634 3.726-3.726 3.726s-3.726-1.634-3.726-3.726c0.065-2.091 1.699-3.725 3.726-3.725z"></path>
<path d="M25.882 19.085c0-2.81 2.549-5.098 5.425-4.575-0.065-1.176-0.327-2.288-0.654-3.399-7.974 4.967-22.418 7.778-30.523 6.732 0.065 0.392 0.131 0.784 0.196 1.176 5.163 0.915 11.046 0.457 16.993-1.503 0.327-0.131 0.719 0.065 0.85 0.392s-0.065 0.719-0.392 0.85c-5.425 1.765-11.373 2.484-17.059 1.634 0.131 0.457 0.327 0.915 0.523 1.373 5.098 0.85 10.065 0.196 13.66-0.654 0.327-0.065 0.719 0.131 0.784 0.458s-0.131 0.719-0.523 0.784c-4.314 0.98-8.824 1.373-13.268 0.784 0.261 0.523 0.588 0.98 0.85 1.438 3.137 0.392 6.601 0.327 10.327-0.261 0.392-0.065 0.719 0.196 0.719 0.523 0.065 0.327-0.196 0.719-0.523 0.719-3.856 0.654-6.797 0.654-9.412 0.458 0.458 0.523 0.98 1.046 1.503 1.503 2.288 0.131 4.706 0.065 7.255-0.327 0.327-0.065 0.719 0.196 0.719 0.588 0.065 0.327-0.196 0.719-0.588 0.719-1.895 0.261-3.726 0.392-5.621 0.392 2.484 1.569 5.359 2.549 8.497 2.549 5.817 0 10.85-3.137 13.595-7.843-1.895-0.588-3.333-2.353-3.333-4.51zM22.157 28.17c-1.765 0-3.203-1.438-3.203-3.203s1.438-3.203 3.203-3.203c1.765 0 3.203 1.438 3.203 3.203-0.065 1.765-1.438 3.203-3.203 3.203z"></path>
<path d="M22.157 27.19c1.227 0 2.222-0.995 2.222-2.222s-0.995-2.222-2.222-2.222c-1.227 0-2.222 0.995-2.222 2.222s0.995 2.222 2.222 2.222z"></path>
</symbol>
<symbol id="icon-hand" viewBox="0 0 23 32">
<path d="M6.331 24.25c0-0.227 0.042-0.447 0.114-0.654l-2.132-1.235c-0.278 0.589-0.431 1.232-0.431 1.889 0 0.667 0.151 1.298 0.415 1.866l2.139-1.236c-0.067-0.201-0.106-0.413-0.106-0.63z"></path>
<path d="M4.688 26.798c0.736 1.052 1.912 1.771 3.259 1.89v-2.472c-0.438-0.087-0.832-0.317-1.121-0.654l-2.138 1.235z"></path>
<path d="M11.972 21.687c-0.752-1.069-1.938-1.753-3.239-1.869v2.466c0.427 0.087 0.814 0.31 1.103 0.637l2.136-1.233z"></path>
<path d="M9.565 24.25c0-0.664-0.555-1.224-1.224-1.224-0.674 0-1.224 0.559-1.224 1.224 0 0.644 0.523 1.224 1.224 1.224 0.708 0 1.224-0.585 1.224-1.224z"></path>
<path d="M7.948 22.284v-2.466c-1.301 0.116-2.488 0.8-3.239 1.864l2.135 1.237c0.287-0.325 0.675-0.549 1.104-0.636z"></path>
<path d="M22.531 17.514c-0.376-0.413-0.983-0.517-1.475-0.249l-4.355 2.368c-0.319 0.174-0.699 0.169-1.015-0.013s-0.51-0.508-0.521-0.872l-0.429-15.431c0-0.864-0.694-1.558-1.547-1.558s-1.548 0.694-1.548 1.547v13.014c0 0.217-0.176 0.393-0.393 0.393s-0.393-0.176-0.393-0.393v-14.772c0-0.853-0.694-1.547-1.547-1.547s-1.548 0.694-1.548 1.547v14.121c0 0.217-0.176 0.393-0.393 0.393s-0.393-0.176-0.393-0.393v-11.857c0-0.854-0.694-1.548-1.547-1.548s-1.548 0.694-1.548 1.548v12.508c0 0.217-0.176 0.393-0.393 0.393s-0.393-0.176-0.393-0.393v-10.46c0-0.853-0.694-1.547-1.547-1.547s-1.548 0.694-1.548 1.547l0.6 22.432c0.051 1.904 1.582 3.395 3.486 3.395h9.598c1.279 0 2.454-0.698 3.064-1.823l5.952-10.955c0.246-0.453 0.178-1.014-0.169-1.395zM8.34 29.494c-2.891 0-5.243-2.352-5.243-5.244 0-2.857 2.335-5.244 5.243-5.244 2.926 0 5.244 2.409 5.244 5.244 0 2.891-2.352 5.244-5.244 5.244z"></path>
<path d="M8.733 26.217v2.471c1.348-0.118 2.524-0.838 3.26-1.89l-2.137-1.235c-0.287 0.335-0.682 0.566-1.122 0.653z"></path>
<path d="M10.35 24.25c0 0.216-0.039 0.428-0.107 0.63l2.14 1.236c0.264-0.569 0.415-1.2 0.415-1.867 0-0.658-0.153-1.3-0.43-1.885l-2.131 1.231c0.072 0.205 0.114 0.425 0.114 0.653z"></path>
</symbol>
<symbol id="icon-inst" viewBox="0 0 32 32">
<path d="M9.28 0h13.44c5.12 0 9.28 4.16 9.28 9.28v13.44c0 2.461-0.978 4.822-2.718 6.562s-4.101 2.718-6.562 2.718h-13.44c-5.12 0-9.28-4.16-9.28-9.28v-13.44c0-2.461 0.978-4.822 2.718-6.562s4.101-2.718 6.562-2.718zM8.96 3.2c-1.528 0-2.993 0.607-4.073 1.687s-1.687 2.545-1.687 4.073v14.080c0 3.184 2.576 5.76 5.76 5.76h14.080c1.528 0 2.993-0.607 4.073-1.687s1.687-2.545 1.687-4.073v-14.080c0-3.184-2.576-5.76-5.76-5.76h-14.080zM24.4 5.6c0.53 0 1.039 0.211 1.414 0.586s0.586 0.884 0.586 1.414c0 0.53-0.211 1.039-0.586 1.414s-0.884 0.586-1.414 0.586c-0.53 0-1.039-0.211-1.414-0.586s-0.586-0.884-0.586-1.414c0-0.53 0.211-1.039 0.586-1.414s0.884-0.586 1.414-0.586zM16 8c2.122 0 4.157 0.843 5.657 2.343s2.343 3.535 2.343 5.657c0 2.122-0.843 4.157-2.343 5.657s-3.535 2.343-5.657 2.343c-2.122 0-4.157-0.843-5.657-2.343s-2.343-3.535-2.343-5.657c0-2.122 0.843-4.157 2.343-5.657s3.535-2.343 5.657-2.343zM16 11.2c-1.273 0-2.494 0.506-3.394 1.406s-1.406 2.121-1.406 3.394c0 1.273 0.506 2.494 1.406 3.394s2.121 1.406 3.394 1.406c1.273 0 2.494-0.506 3.394-1.406s1.406-2.121 1.406-3.394c0-1.273-0.506-2.494-1.406-3.394s-2.121-1.406-3.394-1.406z"></path>
</symbol>
<symbol id="icon-screwdriver" viewBox="0 0 46 32">
<path d="M42.058 28.404c0.188-0.188 0.188-0.565 0-0.753l-5.271-5.271c-0.188-0.188-0.565-0.188-0.753 0l-0.094 0.188c-0.188 0.188-0.188 0.565 0 0.753l5.271 5.271c0.188 0.188 0.565 0.188 0.753 0l0.094-0.188z"></path>
<path d="M42.717 27.086c0.188 0.188 0.565 0.188 0.753 0l0.094-0.094c0.188-0.188 0.188-0.565 0-0.753l-5.271-5.271c-0.188-0.188-0.565-0.188-0.753 0l-0.094 0.094c-0.188 0.188-0.188 0.565 0 0.753l5.271 5.271z"></path>
<path d="M35.374 23.886c-0.188-0.188-0.565-0.188-0.753 0l-0.094 0.094c-0.188 0.188-0.188 0.565 0 0.753l5.271 5.271c0.188 0.188 0.565 0.188 0.753 0l0.094-0.094c0.188-0.188 0.188-0.565 0-0.753l-5.271-5.271z"></path>
<path d="M45.258 28.498c-0.282-0.282-0.753-0.282-1.035 0l-2.165 2.165c-0.282 0.282-0.282 0.753 0 1.035s0.753 0.282 1.035 0l2.165-2.165c0.282-0.282 0.282-0.753 0-1.035z"></path>
<path d="M35.939 18.614l0.188-0.188c0.282-0.282 0.282-0.753 0-1.035l-0.188-0.188c-0.282-0.282-0.753-0.282-1.035 0l-0.188 0.188-2.541-2.541-2.165 5.365 0.941 0.941-0.188 0.188c-0.282 0.282-0.282 0.753 0 1.035l0.188 0.188c0.282 0.282 0.753 0.282 1.035 0l0.188-0.188 0.941 0.941 3.765-3.765-0.941-0.941z"></path>
<path d="M0.828 27.839l0.565 0.565-1.13 1.13 2.447 2.447 1.13-1.13 0.471 0.565 3.577-3.577-3.577-3.483-3.483 3.483z"></path>
<path d="M6.441 22.193l-1.065 1.065 3.528 3.528 1.065-1.065-3.528-3.528z"></path>
<path d="M8.554 20.139l-1.065 1.065 3.528 3.528 1.065-1.065-3.528-3.528z"></path>
<path d="M10.133 17.553l-1.065 1.065 4.526 4.526 1.065-1.065-4.526-4.526z"></path>
<path d="M25.585 10.237l-1.788 1.789 5.554 5.93 1.224-3.012-4.989-4.707z"></path>
<path d="M21.819 6.754l-7.154-6.683-1.13 1.035 6.777 7.154 1.506-1.506z"></path>
<path d="M31.891 2.141c0.377-0.471 0.377-1.224 0-1.6l-0.188-0.188c-0.471-0.471-1.224-0.471-1.6 0l-17.508 17.508 1.788 1.788 17.508-17.508z"></path>
</symbol>
<symbol id="icon-tie-fighter" viewBox="0 0 36 32">
<path d="M2.458 0h-1.491l-0.746 15.879 0.746 15.879h1.491l0.596-13.046 5.889 1.044v-7.753l-5.889 1.044-0.596-13.046z"></path>
<path d="M35.26 0h-1.491l-0.596 13.046-5.889-1.044v7.753l5.889-1.044 0.596 13.046h1.491l0.746-15.879-0.746-15.879z"></path>
<path d="M15.057 7.008l-4.622 3.28v11.033l4.622 3.28h6.188l4.622-3.28v-10.959l-4.622-3.28h-6.188v-0.075zM22.735 15.879c0 2.535-2.087 4.622-4.622 4.622s-4.622-2.087-4.622-4.622 2.087-4.622 4.622-4.622c2.535 0 4.622 2.087 4.622 4.622z"></path>
<path d="M18.113 19.010c1.729 0 3.131-1.402 3.131-3.131s-1.402-3.131-3.131-3.131c-1.729 0-3.131 1.402-3.131 3.131s1.402 3.131 3.131 3.131z"></path>
</symbol>
<symbol id="icon-trooper" viewBox="0 0 27 32">
<path d="M23.902 7.102c0-3.135-2.482-6.139-5.616-6.661-3.461-0.588-6.922-0.588-10.318 0-3.069 0.522-5.616 3.527-5.616 6.661v1.959h21.551v-1.959z"></path>
<path d="M26.253 17.355v-3.396c0-1.567-1.698-1.829-2.286-2.22h-0.065v-0.98h-21.551v0.98h-0.065l-1.241 0.588c-0.653 0.327-1.045 0.914-1.045 1.633v3.396c0 0.718 0.392 1.306 1.045 1.633l1.241 0.588c-0.196 1.175-0.784 2.286-1.633 3.2-0.327 0.327-0.327 0.849 0 1.241l1.437 1.502c0.522 0.522 0.457 0.849 1.502 3.788 0.261 0.718 1.045 1.175 1.763 0.98 1.306-0.261 2.482-0.522 3.657-0.653 0.392 1.11 1.371 1.763 2.416 1.763h3.396c1.11 0 2.090-0.653 2.482-1.763 1.175 0.131 2.416 0.392 3.657 0.653 0.784 0.196 1.567-0.261 1.763-0.98 0.327-1.045 0.784-2.416 1.045-3.069 0.196-0.653 0.588-0.849 1.894-2.22 0.327-0.327 0.327-0.849 0-1.241-0.849-0.849-1.437-1.959-1.633-3.2 0.522-0.392 2.22-0.653 2.22-2.22zM2.351 18.204l-0.784-0.392c-0.196-0.065-0.327-0.261-0.327-0.522v-3.396c0-0.196 0.131-0.392 0.327-0.522l0.784-0.327v5.159zM4.571 13.633c-0.196-0.457 0.131-0.98 0.522-0.98h5.943c0.457 0 0.718 0.522 0.522 0.98-0.653 1.567-2.024 2.547-3.527 2.547s-2.808-0.98-3.461-2.547zM6.531 27.543c-0.718 0-1.306-0.588-1.306-1.306s0.588-1.306 1.306-1.306c0.718 0 1.306 0.588 1.306 1.306s-0.588 1.306-1.306 1.306zM14.825 30.090h-3.396c-1.045 0-1.698-1.175-1.11-2.090l1.698-2.482c0.522-0.784 1.633-0.784 2.155 0l1.698 2.482c0.653 0.849 0 2.090-1.045 2.090zM18.155 21.273c-0.196 0.261-0.588 0.327-0.914 0.131-4.18-3.331-8.098-0.131-8.294 0-0.261 0.196-0.653 0.196-0.914-0.065-0.196-0.261-0.196-0.653 0.065-0.914 0.065-0.065 4.833-4.049 9.861 0 0.392 0.131 0.392 0.588 0.196 0.849zM19.722 27.543c-0.718 0-1.306-0.588-1.306-1.306s0.588-1.306 1.306-1.306c0.718 0 1.306 0.588 1.306 1.306-0.065 0.718-0.653 1.306-1.306 1.306zM21.682 13.633c-0.653 1.567-2.024 2.547-3.527 2.547s-2.873-0.98-3.527-2.547c-0.196-0.457 0.131-0.98 0.522-0.98h5.943c0.457 0 0.784 0.522 0.588 0.98zM25.012 17.355c0 0.522-0.588 0.588-1.11 0.849v-5.159c0.457 0.261 1.11 0.327 1.11 0.849v3.461z"></path>
</symbol>
<symbol id="icon-twitter" viewBox="0 0 41 32">
<path d="M40.395 3.765c-1.449 0.659-3.012 1.092-4.631 1.299 1.656-0.998 2.936-2.579 3.539-4.48-1.562 0.941-3.294 1.6-5.12 1.976-1.487-1.619-3.576-2.56-5.948-2.56-4.424 0-8.038 3.614-8.038 8.075 0 0.64 0.075 1.261 0.207 1.845-6.701-0.339-12.668-3.558-16.64-8.433-0.696 1.186-1.092 2.579-1.092 4.047 0 2.805 1.412 5.289 3.595 6.701-1.336 0-2.579-0.376-3.671-0.941v0.056c0 3.915 2.786 7.191 6.475 7.925-1.184 0.324-2.428 0.369-3.633 0.132 0.511 1.605 1.513 3.009 2.863 4.015s2.982 1.564 4.666 1.595c-2.854 2.26-6.392 3.481-10.033 3.464-0.64 0-1.28-0.038-1.92-0.113 3.576 2.296 7.831 3.633 12.386 3.633 14.833 0 22.983-12.311 22.983-22.984 0-0.358 0-0.696-0.019-1.054 1.581-1.129 2.936-2.56 4.028-4.198z"></path>
</symbol>
<symbol id="icon-youtube" viewBox="0 0 46 32">
<path d="M18.286 22.857l11.863-6.857-11.863-6.857v13.714zM44.709 4.96c0.297 1.074 0.503 2.514 0.64 4.343 0.16 1.829 0.229 3.406 0.229 4.777l0.137 1.92c0 5.006-0.366 8.686-1.006 11.040-0.571 2.057-1.897 3.383-3.954 3.954-1.074 0.297-3.040 0.503-6.057 0.64-2.971 0.16-5.691 0.229-8.206 0.229l-3.634 0.137c-9.577 0-15.543-0.366-17.897-1.006-2.057-0.571-3.383-1.897-3.954-3.954-0.297-1.074-0.503-2.514-0.64-4.343-0.16-1.829-0.229-3.406-0.229-4.777l-0.137-1.92c0-5.006 0.366-8.686 1.006-11.040 0.571-2.057 1.897-3.383 3.954-3.954 1.074-0.297 3.040-0.503 6.057-0.64 2.971-0.16 5.691-0.229 8.206-0.229l3.634-0.137c9.577 0 15.543 0.366 17.897 1.006 2.057 0.571 3.383 1.897 3.954 3.954z"></path>
</symbol>
<symbol id="icon-logo" viewBox="0 0 72 32">
<path d="M0 10.003h10.568c0.297 0 3.256 0.492 1.277-1.301-2.17-1.966-2.41-3.603-2.482-4.903s1.205-3.799 3.816-3.799h21.46v4.5h-6.627v10.507h-4.917v-10.507h-6.2c-0.904 0-2.109 0-1.033 1.001l1.878 2.218c1.234 1.384 0.833 2.067 0.833 3.113 0 2.602-2.181 4.175-3.888 4.175h-14.685v-5.003zM45.513 0h-7.933l-4.447 15.007h4.949l0.803-2.101h5.221l0.775 2.101h4.848l-4.216-15.007zM39.99 9.303l1.707-5.504 1.607 5.504h-3.314zM65.394 10.003c-1.908 0-1.908-0.7-1.908-0.7 1.635 0 3.084-2.373 3.084-4.803s-2.381-4.5-4.29-4.5h-10.672v15.006h5.423v-5.003c0 0 2.309 2.702 3.514 3.802s1.305 1.201 2.941 1.201h8.513v-5.003c0.001-0-4.697-0-6.604-0zM60.474 6.501h-3.442v-2.702h3.442c1.578 0 1.851 2.702 0 2.702zM0 16.907l4.443 15.010h4.518l2.181-7.105 1.936 7.105h4.418l4.418-15.010h-4.82l-1.506 5.004-1.506-5.004h-5.824l-1.305 5.004-1.406-5.004h-5.548zM33.301 16.994h-7.933l-4.447 15.006h4.949l0.803-2.101h5.222l0.775 2.101h4.848l-4.218-15.006zM27.779 26.296l1.707-5.504 1.607 5.504h-3.314zM65.494 21.411l6.506 0v-4.503h-10.148c-2.61 0-3.739 2.607-3.666 3.908s0.312 2.936 2.482 4.902c1.979 1.793-0.98 1.301-1.277 1.301 0 0-4.639-0.005-5.845-0.005s-1.924-0.721-1.924-0.721c1.636 0 3.085-2.373 3.085-4.803s-2.382-4.5-4.29-4.5h-10.672v15.006h5.422v-5.003c0 0 2.31 2.702 3.514 3.803s1.305 1.2 2.94 1.2l11.865-0.079c1.707 0 4.29-1.573 4.29-4.174 0-1.047 0.020-1.624-1.214-3.009l-1.879-2.218c-1.077-1-0.092-1.105 0.811-1.105zM48.609 23.491h-3.443v-2.702h3.443c1.578 0 1.851 2.702 0 2.702z"></path>
</symbol>
</defs>
</svg>
